<?xml version="1.0" encoding="UTF-8"?><svg id="Layer_1" xmlns="http://www.w3.org/2000/svg" viewBox="0 0 100 86.6"><defs><style>.cls-1{fill:#e34c69;}</style></defs><g><path class="cls-1" d="M37.1,24.82v20.12h12.03v4.56H31.68V24.82h5.43Z"/><path class="cls-1" d="M51.45,37.13c.07-1.15,.36-2.11,.86-2.87,.51-.76,1.15-1.37,1.94-1.83,.78-.46,1.67-.79,2.65-.99,.98-.2,1.96-.29,2.96-.29,.9,0,1.81,.06,2.73,.19,.92,.13,1.76,.38,2.52,.74s1.38,.88,1.87,1.54c.48,.66,.73,1.53,.73,2.61v9.3c0,.81,.05,1.58,.14,2.32,.09,.74,.25,1.29,.48,1.66h-4.98c-.09-.28-.17-.56-.22-.85-.06-.29-.1-.58-.12-.88-.78,.81-1.71,1.37-2.77,1.69-1.06,.32-2.14,.48-3.25,.48-.85,0-1.65-.1-2.39-.31-.74-.21-1.38-.53-1.94-.97-.55-.44-.99-.99-1.3-1.66-.31-.67-.47-1.46-.47-2.39,0-1.01,.18-1.85,.54-2.51s.82-1.18,1.38-1.57c.56-.39,1.21-.69,1.94-.88s1.46-.35,2.2-.47c.74-.12,1.46-.21,2.18-.28,.71-.07,1.35-.17,1.9-.31s.99-.34,1.31-.6c.32-.26,.47-.65,.45-1.16,0-.53-.09-.95-.26-1.26-.17-.31-.4-.55-.69-.73-.29-.17-.62-.29-1-.35-.38-.06-.79-.09-1.23-.09-.97,0-1.73,.21-2.28,.62s-.88,1.11-.97,2.07h-4.91Zm11.34,3.63c-.21,.18-.47,.33-.78,.43-.31,.1-.65,.19-1,.26-.36,.07-.73,.13-1.12,.17-.39,.05-.78,.1-1.18,.17-.37,.07-.73,.16-1.09,.28-.36,.12-.67,.27-.93,.47-.27,.2-.48,.44-.64,.74-.16,.3-.24,.68-.24,1.14s.08,.81,.24,1.11c.16,.3,.38,.54,.66,.71,.28,.17,.6,.29,.97,.36,.37,.07,.75,.1,1.14,.1,.97,0,1.72-.16,2.25-.48,.53-.32,.92-.71,1.18-1.16,.25-.45,.41-.9,.47-1.37,.06-.46,.09-.83,.09-1.11v-1.83Z"/></g><g><path class="cls-1" d="M41.49,58v.63h-3.15v1.79h2.93v.63h-2.93v1.95h3.17v.63h-3.92v-5.64h3.9Z"/><path class="cls-1" d="M42.95,59.56v.65h.02c.28-.5,.72-.74,1.33-.74,.27,0,.49,.04,.67,.11,.18,.07,.32,.18,.43,.31,.11,.13,.19,.29,.23,.47s.07,.38,.07,.6v2.69h-.67v-2.77c0-.25-.07-.45-.22-.6-.15-.15-.35-.22-.61-.22-.21,0-.38,.03-.53,.1-.15,.06-.28,.15-.38,.27s-.17,.25-.23,.41c-.05,.16-.08,.33-.08,.51v2.31h-.67v-4.09h.63Z"/><path class="cls-1" d="M49.77,64.8c-.31,.33-.79,.5-1.44,.5-.19,0-.38-.02-.58-.06-.2-.04-.38-.11-.54-.21-.16-.09-.29-.22-.4-.37-.11-.15-.16-.34-.17-.56h.67c0,.12,.04,.22,.11,.31,.07,.08,.16,.15,.26,.21,.1,.05,.21,.09,.34,.11,.12,.02,.24,.04,.35,.04,.22,0,.41-.04,.56-.11,.15-.08,.28-.18,.38-.32,.1-.13,.17-.3,.22-.49,.04-.19,.07-.4,.07-.62v-.27h-.02c-.12,.25-.29,.44-.53,.56-.23,.12-.48,.18-.75,.18-.31,0-.57-.06-.8-.17-.23-.11-.42-.26-.57-.45s-.27-.41-.34-.66c-.08-.25-.11-.51-.11-.79,0-.24,.03-.49,.09-.75,.06-.26,.17-.49,.32-.7,.15-.21,.34-.38,.58-.51,.24-.13,.54-.2,.89-.2,.26,0,.5,.06,.71,.17,.22,.11,.38,.28,.51,.51h0v-.58h.63v3.74c0,.67-.15,1.17-.46,1.5Zm-.86-1.84c.16-.09,.28-.21,.38-.36,.09-.15,.16-.32,.21-.51,.04-.19,.07-.38,.07-.57,0-.18-.02-.36-.06-.53s-.11-.33-.2-.47-.21-.25-.36-.34c-.15-.08-.33-.13-.54-.13s-.4,.04-.55,.12c-.15,.08-.28,.19-.38,.33-.1,.14-.17,.29-.21,.47-.04,.18-.07,.37-.07,.56,0,.18,.02,.37,.06,.55,.04,.18,.1,.35,.19,.5,.09,.15,.21,.27,.36,.36s.33,.14,.55,.14,.41-.05,.56-.14Z"/><path class="cls-1" d="M51.95,58v5.64h-.67v-5.64h.67Z"/><path class="cls-1" d="M53.04,58.83v-.82h.67v.82h-.67Zm.67,.73v4.09h-.67v-4.09h.67Z"/><path class="cls-1" d="M55.27,62.73c.06,.1,.15,.18,.25,.24,.1,.06,.22,.1,.35,.13,.13,.03,.26,.04,.4,.04,.11,0,.22,0,.33-.02,.12-.02,.22-.04,.32-.09s.18-.1,.24-.19c.06-.08,.09-.19,.09-.31,0-.17-.07-.31-.2-.4-.13-.09-.3-.16-.49-.22s-.41-.11-.64-.15c-.23-.04-.45-.11-.64-.19-.2-.08-.36-.2-.49-.34-.13-.15-.2-.35-.2-.62,0-.21,.05-.38,.14-.53s.21-.27,.36-.36,.31-.16,.49-.21c.18-.04,.36-.07,.54-.07,.23,0,.45,.02,.64,.06s.37,.11,.52,.21c.15,.1,.27,.23,.36,.4,.09,.17,.14,.37,.16,.62h-.67c-.01-.13-.04-.24-.1-.33s-.13-.16-.22-.21-.19-.09-.3-.11c-.11-.02-.22-.04-.33-.04-.1,0-.2,0-.3,.02-.1,.02-.2,.04-.28,.08-.08,.04-.15,.09-.21,.16s-.08,.15-.08,.26c0,.12,.04,.21,.12,.29,.08,.08,.19,.14,.31,.19,.13,.05,.27,.09,.43,.13,.16,.03,.32,.07,.47,.11,.17,.04,.33,.08,.49,.13s.3,.12,.43,.21c.12,.09,.22,.2,.3,.33,.08,.13,.11,.29,.11,.49,0,.25-.05,.45-.15,.62-.1,.16-.24,.29-.4,.4-.17,.1-.35,.17-.56,.21-.21,.04-.42,.06-.62,.06-.23,0-.44-.02-.65-.07s-.39-.12-.55-.23c-.16-.11-.28-.25-.38-.43-.09-.18-.15-.39-.16-.64h.67c0,.15,.04,.27,.1,.38Z"/><path class="cls-1" d="M59.37,58v2.16h.02c.05-.13,.13-.23,.22-.32s.2-.16,.32-.21c.12-.06,.24-.1,.37-.12,.13-.03,.25-.04,.38-.04,.27,0,.49,.04,.67,.11,.18,.07,.32,.18,.43,.31,.11,.13,.19,.29,.23,.47s.07,.38,.07,.6v2.69h-.67v-2.77c0-.25-.07-.45-.22-.6-.15-.15-.35-.22-.61-.22-.21,0-.38,.03-.53,.1-.15,.06-.28,.15-.38,.27s-.17,.25-.23,.41c-.05,.16-.08,.33-.08,.51v2.31h-.67v-5.64h.67Z"/><path class="cls-1" d="M33.66,66.4v5.01h2.99v.63h-3.74v-5.64h.75Z"/><path class="cls-1" d="M40.81,72.03c-.12,.07-.28,.1-.48,.1-.17,0-.31-.05-.42-.15-.1-.1-.15-.26-.15-.48-.18,.22-.4,.38-.64,.48-.25,.1-.51,.15-.79,.15-.18,0-.36-.02-.53-.06-.17-.04-.31-.11-.43-.2-.12-.09-.22-.21-.29-.35s-.11-.32-.11-.53c0-.23,.04-.42,.12-.57,.08-.15,.18-.27,.31-.36,.13-.09,.28-.16,.44-.21s.34-.09,.51-.12c.18-.04,.36-.06,.53-.08,.17-.02,.31-.04,.44-.08,.13-.03,.23-.08,.3-.15s.11-.16,.11-.29c0-.15-.03-.27-.08-.36s-.13-.16-.21-.21-.18-.08-.29-.09-.21-.02-.32-.02c-.28,0-.52,.05-.71,.16-.19,.11-.29,.31-.31,.61h-.67c.01-.25,.06-.47,.16-.64,.09-.17,.22-.31,.38-.42s.34-.19,.54-.23c.2-.05,.42-.07,.65-.07,.18,0,.37,.01,.55,.04,.18,.03,.35,.08,.49,.16,.15,.08,.27,.2,.36,.34,.09,.15,.13,.34,.13,.58v2.1c0,.16,0,.27,.03,.35s.08,.11,.19,.11c.06,0,.13-.01,.21-.03v.52Zm-1.09-2.09c-.08,.06-.2,.11-.33,.14-.14,.03-.28,.05-.43,.07-.15,.02-.3,.04-.45,.06-.15,.02-.29,.06-.41,.11-.12,.05-.22,.13-.3,.22-.08,.1-.11,.23-.11,.4,0,.11,.02,.2,.07,.28,.04,.08,.1,.14,.17,.19,.07,.05,.15,.08,.25,.1,.09,.02,.19,.03,.3,.03,.22,0,.41-.03,.57-.09,.16-.06,.29-.14,.39-.23s.17-.19,.22-.3,.07-.21,.07-.3v-.68Z"/><path class="cls-1" d="M42.07,67.96v.65h.02c.28-.5,.72-.74,1.33-.74,.27,0,.49,.04,.67,.11,.18,.07,.32,.18,.43,.31,.11,.13,.19,.29,.23,.47s.07,.38,.07,.6v2.69h-.67v-2.77c0-.25-.07-.45-.22-.6-.15-.15-.35-.22-.61-.22-.21,0-.38,.03-.53,.1-.15,.06-.28,.15-.38,.27s-.17,.25-.23,.41c-.05,.16-.08,.33-.08,.51v2.31h-.67v-4.09h.63Z"/><path class="cls-1" d="M48.9,73.2c-.31,.33-.79,.5-1.44,.5-.19,0-.38-.02-.58-.06-.2-.04-.38-.11-.54-.21-.16-.09-.29-.22-.4-.37-.11-.15-.16-.34-.17-.56h.67c0,.12,.04,.22,.11,.31,.07,.08,.16,.15,.26,.21,.1,.05,.21,.09,.34,.11,.12,.02,.24,.04,.35,.04,.22,0,.41-.04,.56-.11,.15-.08,.28-.18,.38-.32,.1-.13,.17-.3,.22-.49,.04-.19,.07-.4,.07-.62v-.27h-.02c-.12,.25-.29,.44-.53,.56-.23,.12-.48,.18-.75,.18-.31,0-.57-.06-.8-.17-.23-.11-.42-.26-.57-.45s-.27-.41-.34-.66c-.08-.25-.11-.51-.11-.79,0-.24,.03-.49,.09-.75,.06-.26,.17-.49,.32-.7,.15-.21,.34-.38,.58-.51,.24-.13,.54-.2,.89-.2,.26,0,.5,.06,.71,.17,.22,.11,.38,.28,.51,.51h0v-.58h.63v3.74c0,.67-.15,1.17-.46,1.5Zm-.86-1.84c.16-.09,.28-.21,.38-.36,.09-.15,.16-.32,.21-.51,.04-.19,.07-.38,.07-.57,0-.18-.02-.36-.06-.53s-.11-.33-.2-.47-.21-.25-.36-.34c-.15-.08-.33-.13-.54-.13s-.4,.04-.55,.12c-.15,.08-.28,.19-.38,.33-.1,.14-.17,.29-.21,.47-.04,.18-.07,.37-.07,.56,0,.18,.02,.37,.06,.55,.04,.18,.1,.35,.19,.5,.09,.15,.21,.27,.36,.36s.33,.14,.55,.14,.41-.05,.56-.14Z"/><path class="cls-1" d="M53.12,72.04v-.65h-.02c-.14,.25-.32,.44-.55,.56s-.48,.18-.78,.18c-.27,0-.49-.04-.67-.11-.18-.07-.32-.17-.43-.3-.11-.13-.19-.29-.23-.47-.04-.18-.07-.38-.07-.6v-2.69h.67v2.77c0,.25,.07,.45,.22,.6,.15,.15,.35,.22,.61,.22,.21,0,.38-.03,.53-.09,.15-.06,.28-.15,.38-.27s.18-.25,.23-.41c.05-.16,.08-.33,.08-.51v-2.31h.67v4.09h-.63Z"/><path class="cls-1" d="M58.38,72.03c-.12,.07-.28,.1-.48,.1-.17,0-.31-.05-.42-.15-.1-.1-.15-.26-.15-.48-.18,.22-.4,.38-.64,.48-.25,.1-.51,.15-.79,.15-.18,0-.36-.02-.53-.06-.17-.04-.31-.11-.43-.2-.12-.09-.22-.21-.29-.35s-.11-.32-.11-.53c0-.23,.04-.42,.12-.57,.08-.15,.18-.27,.31-.36,.13-.09,.28-.16,.44-.21s.34-.09,.51-.12c.18-.04,.36-.06,.53-.08,.17-.02,.31-.04,.44-.08,.13-.03,.23-.08,.3-.15s.11-.16,.11-.29c0-.15-.03-.27-.08-.36s-.13-.16-.21-.21-.18-.08-.29-.09-.21-.02-.32-.02c-.28,0-.52,.05-.71,.16-.19,.11-.29,.31-.31,.61h-.67c.01-.25,.06-.47,.16-.64,.09-.17,.22-.31,.38-.42s.34-.19,.54-.23c.2-.05,.42-.07,.65-.07,.18,0,.37,.01,.55,.04,.18,.03,.35,.08,.49,.16,.15,.08,.27,.2,.36,.34,.09,.15,.13,.34,.13,.58v2.1c0,.16,0,.27,.03,.35s.08,.11,.19,.11c.06,0,.13-.01,.21-.03v.52Zm-1.09-2.09c-.08,.06-.2,.11-.33,.14-.14,.03-.28,.05-.43,.07-.15,.02-.3,.04-.45,.06-.15,.02-.29,.06-.41,.11-.12,.05-.22,.13-.3,.22-.08,.1-.11,.23-.11,.4,0,.11,.02,.2,.07,.28,.04,.08,.1,.14,.17,.19,.07,.05,.15,.08,.25,.1,.09,.02,.19,.03,.3,.03,.22,0,.41-.03,.57-.09,.16-.06,.29-.14,.39-.23s.17-.19,.22-.3,.07-.21,.07-.3v-.68Z"/><path class="cls-1" d="M62.07,73.2c-.31,.33-.79,.5-1.44,.5-.19,0-.38-.02-.58-.06-.2-.04-.38-.11-.54-.21-.16-.09-.29-.22-.4-.37-.11-.15-.16-.34-.17-.56h.67c0,.12,.04,.22,.11,.31,.07,.08,.16,.15,.26,.21,.1,.05,.21,.09,.34,.11,.12,.02,.24,.04,.35,.04,.22,0,.41-.04,.56-.11,.15-.08,.28-.18,.38-.32,.1-.13,.17-.3,.22-.49,.04-.19,.07-.4,.07-.62v-.27h-.02c-.12,.25-.29,.44-.53,.56-.23,.12-.48,.18-.75,.18-.31,0-.57-.06-.8-.17-.23-.11-.42-.26-.57-.45s-.27-.41-.34-.66c-.08-.25-.11-.51-.11-.79,0-.24,.03-.49,.09-.75,.06-.26,.17-.49,.32-.7,.15-.21,.34-.38,.58-.51,.24-.13,.54-.2,.89-.2,.26,0,.5,.06,.71,.17,.22,.11,.38,.28,.51,.51h0v-.58h.63v3.74c0,.67-.15,1.17-.46,1.5Zm-.86-1.84c.16-.09,.28-.21,.38-.36,.09-.15,.16-.32,.21-.51,.04-.19,.07-.38,.07-.57,0-.18-.02-.36-.06-.53s-.11-.33-.2-.47-.21-.25-.36-.34c-.15-.08-.33-.13-.54-.13s-.4,.04-.55,.12c-.15,.08-.28,.19-.38,.33-.1,.14-.17,.29-.21,.47-.04,.18-.07,.37-.07,.56,0,.18,.02,.37,.06,.55,.04,.18,.1,.35,.19,.5,.09,.15,.21,.27,.36,.36s.33,.14,.55,.14,.41-.05,.56-.14Z"/><path class="cls-1" d="M66.43,71.78c-.31,.23-.69,.35-1.15,.35-.33,0-.61-.05-.85-.16-.24-.1-.44-.25-.6-.44-.16-.19-.29-.42-.37-.68-.08-.26-.13-.55-.14-.86,0-.31,.05-.6,.14-.85,.09-.26,.23-.48,.4-.67,.17-.19,.37-.34,.61-.44s.49-.16,.77-.16c.36,0,.67,.07,.91,.23,.24,.15,.43,.34,.58,.57s.25,.48,.3,.76,.08,.53,.07,.78h-3.06c0,.18,.02,.35,.06,.51s.12,.3,.23,.43c.11,.12,.24,.22,.4,.3,.16,.07,.36,.11,.58,.11,.28,0,.52-.07,.7-.2s.3-.33,.36-.6h.66c-.09,.46-.29,.8-.59,1.04Zm-.16-2.62c-.06-.14-.14-.26-.24-.37-.1-.1-.22-.18-.36-.25-.14-.06-.29-.09-.46-.09s-.33,.03-.47,.09c-.14,.06-.26,.14-.36,.25-.1,.11-.18,.23-.24,.37-.06,.14-.09,.29-.1,.45h2.35c-.01-.16-.05-.31-.11-.45Z"/></g><path class="cls-1" d="M71.73,5.67l21.73,37.63-21.73,37.63H28.27L6.55,43.3,28.27,5.67h43.45M75,0H25L0,43.3l25,43.3h50l25-43.3L75,0h0Z"/></svg>